<svg xmlns="http://www.w3.org/2000/svg" width="48" height="48">
<defs>
<defs
     id="defs4" />
  <g
     id="layer1">
    <path
       d="M 19,8.34375 L 19,9.4375 L 19,16.9375 L 4.5,16.9375 L 4,16.9375 L 4,17.4375 L 4,34.5 L 4,35 L 4.5,35 L 19,35 L 19,42.375 L 19,43.46875 L 19.84375,42.75 L 38.84375,26.3125 L 39,26.1875 L 39,42.5 L 39,43 L 39.5,43 L 43.5,43 L 44,43 L 44,42.5 L 44,9.5 L 44,9 L 43.5,9 L 39.5,9 L 39,9 L 39,9.5 L 39,25.6875 L 38.84375,25.5625 L 19.84375,9.0625 L 19,8.34375 z"
       id="path-main"
        />
  </g>
</defs>
<acyl-settings>
<linearGradient
     id="linearGradient4321">
    <stop
       style="stop-color:#757575;stop-opacity:1.0;"
       offset="0.0"
       id="stop1" />
  </linearGradient>
<linearGradient
     inkscape:collect="always"
     xlink:href="#linearGradient4321"
     id="acyl_gradient"
     x1="50.0%"
     y1="0.0%"
     x2="50.0%"
     y2="100.0%" />
<filter id="filter1111" x="-50%" y="-50%" width="200%" height="200%">
	<feImage
	id="feImage2"
	xlink:href="#1"
	result="result1" />
	<feComposite
	id="feComposite3633"
	in="result1"
	in2="SourceAlpha"
	operator="out" />
</filter>
<defs>
<use id="1" transform="translate(22.5,22.5) scale(1) translate(-22.5,-22.5)" style="stroke-opacity:1;stroke:url(#acyl_gradient);stroke-width:4" xlink:href="#path-main" />
</defs>
<use id="2" transform="translate(22.5,22.5) scale(1) translate(-22.5,-22.5)" style="fill:url(#acyl_gradient);filter:url(#filter1111)" xlink:href="#path-main" />
</acyl-settings>
</svg>
