<svg xmlns="http://www.w3.org/2000/svg" width="48" height="48">
<defs>
<defs
     id="defs5">
  </defs>
  <path
     d="m 14.170213,2 0,7.489362 7.489361,0 0,-7.489362 -7.489361,0 z m 12.170213,4.6808511 0,2.8085109 7.489361,0 0,-2.8085109 -7.489361,0 z M 2,14.170213 l 0,7.489361 7.4893617,0 0,-7.489361 -7.4893617,0 z m 12.170213,0 0,7.489361 7.489361,0 0,-7.489361 -7.489361,0 z m 12.170213,0 0,7.489361 7.489361,0 0,-7.489361 -7.489361,0 z M 2,26.340426 l 0,7.489361 7.4893617,0 0,-7.489361 -7.4893617,0 z m 12.170213,0 0,7.489361 7.489361,0 0,-7.489361 -7.489361,0 z m 12.170213,0 0,7.489361 7.489361,0 0,-7.489361 -7.489361,0 z m 12.170212,0 0,7.489361 7.489362,0 0,-7.489361 -7.489362,0 z M 2,38.510638 2,46 l 7.4893617,0 0,-7.489362 -7.4893617,0 z m 12.170213,0 0,7.489362 7.489361,0 0,-7.489362 -7.489361,0 z m 12.170213,0 0,7.489362 7.489361,0 0,-7.489362 -7.489361,0 z m 12.170212,0 0,7.489362 L 46,46 l 0,-7.489362 -7.489362,0 z"
     id="path-main"
      />
</defs>
<acyl-settings>
<linearGradient
     id="linearGradient4321">
    <stop
       style="stop-color:#757575;stop-opacity:1.0;"
       offset="0.0"
       id="stop1" />
  </linearGradient>
<linearGradient
     inkscape:collect="always"
     xlink:href="#linearGradient4321"
     id="acyl_gradient"
     x1="50.0%"
     y1="0.0%"
     x2="50.0%"
     y2="100.0%" />
<filter id="filter1111" x="-50%" y="-50%" width="200%" height="200%">
	<feImage
	id="feImage2"
	xlink:href="#1"
	result="result1" />
	<feComposite
	id="feComposite3633"
	in="result1"
	in2="SourceAlpha"
	operator="out" />
</filter>
<defs>
<use id="1" transform="translate(22.5,22.5) scale(1) translate(-22.5,-22.5)" style="stroke-opacity:1;stroke:url(#acyl_gradient);stroke-width:4" xlink:href="#path-main" />
</defs>
<use id="2" transform="translate(22.5,22.5) scale(1) translate(-22.5,-22.5)" style="fill:url(#acyl_gradient);filter:url(#filter1111)" xlink:href="#path-main" />
</acyl-settings>
</svg>
