<svg xmlns="http://www.w3.org/2000/svg" width="48" height="48">
<defs>
  <path
     d="M 12.84318,2 C 10.967046,2 9.4549038,3.4107 9.4549038,5.1667 l 0,8.2514 c 0,1.7561 1.5121422,3.1667 3.3882762,3.1667 l 7.356149,0 c 1.876133,0 3.388285,-1.4106 3.388285,-3.1667 l 0,-8.2514 C 23.587614,3.4107 22.075462,2 20.199329,2 L 12.84318,2 z m 14.444794,0 c -1.876133,0 -3.388285,1.4107 -3.388285,3.1667 l 0,8.2514 c 0,1.7561 1.512152,3.1667 3.388285,3.1667 l 7.35615,0 c 1.876133,0 3.388285,-1.4106 3.388285,-3.1667 l 0,-8.2514 C 38.032409,3.4107 36.520257,2 34.644124,2 l -7.35615,0 z M 5.8882857,16.6964 C 4.012152,16.6964 2.5,18.1069 2.5,19.8631 l 0,8.2514 c 0,1.7562 1.512152,3.1668 3.3882857,3.1668 l 7.3561393,0 c 1.876134,0 3.388286,-1.4106 3.388286,-3.1668 l 0,-8.2514 c 0,-1.7562 -1.512152,-3.1667 -3.388286,-3.1667 l -7.3561393,0 z m 14.4002043,0 c -1.876134,0 -3.388276,1.4105 -3.388276,3.1667 l 0,8.2514 c 0,1.7562 1.512142,3.1668 3.388276,3.1668 l 7.356149,0 c 1.876134,0 3.388276,-1.4106 3.388276,-3.1668 l 0,-8.2514 c 0,-1.7562 -1.512142,-3.1667 -3.388276,-3.1667 l -7.356149,0 z m 14.444795,0 c -1.876124,0 -3.388286,1.4105 -3.388286,3.1667 l 0,8.2514 c 0,1.7562 1.512162,3.1668 3.388286,3.1668 l 7.378439,0 C 43.987868,31.2813 45.5,29.8707 45.5,28.1145 l 0,-8.2514 c 0,-1.7562 -1.512132,-3.1667 -3.388276,-3.1667 l -7.378439,0 z M 12.84318,31.3927 c -1.876134,0 -3.3882762,1.4107 -3.3882762,3.1668 l 0,8.2514 c 0,1.7562 1.5121422,3.1891 3.3882762,3.1891 l 7.356149,0 c 1.876133,0 3.388285,-1.4329 3.388285,-3.1891 l 0,-8.2514 c 0,-1.7561 -1.512152,-3.1668 -3.388285,-3.1668 l -7.356149,0 z m 14.444794,0 c -1.876133,0 -3.388285,1.4107 -3.388285,3.1668 l 0,8.2514 c 0,1.7562 1.512152,3.1891 3.388285,3.1891 l 7.35615,0 c 1.876133,0 3.388285,-1.4329 3.388285,-3.1891 l 0,-8.2514 c 0,-1.7561 -1.512152,-3.1668 -3.388285,-3.1668 l -7.35615,0 z"
     id="path-main"
      />
</defs>
<acyl-settings>
<linearGradient
     id="linearGradient4321">
    <stop
       style="stop-color:#757575;stop-opacity:1.0;"
       offset="0.0"
       id="stop1" />
  </linearGradient>
<linearGradient
     inkscape:collect="always"
     xlink:href="#linearGradient4321"
     id="acyl_gradient"
     x1="50.0%"
     y1="0.0%"
     x2="50.0%"
     y2="100.0%" />
<filter id="filter1111" x="-50%" y="-50%" width="200%" height="200%">
	<feImage
	id="feImage2"
	xlink:href="#1"
	result="result1" />
	<feComposite
	id="feComposite3633"
	in="result1"
	in2="SourceAlpha"
	operator="out" />
</filter>
<defs>
<use id="1" transform="translate(22.5,22.5) scale(1) translate(-22.5,-22.5)" style="stroke-opacity:1;stroke:url(#acyl_gradient);stroke-width:4" xlink:href="#path-main" />
</defs>
<use id="2" transform="translate(22.5,22.5) scale(1) translate(-22.5,-22.5)" style="fill:url(#acyl_gradient);filter:url(#filter1111)" xlink:href="#path-main" />
</acyl-settings>
</svg>
