<svg xmlns="http://www.w3.org/2000/svg" width="48" height="48">
<defs>
<defs
     id="defs7408">
  </defs>
    <path
         d="M 24,2 C 11.856004,2 2.0000001,11.856002 2,24 2,36.143997 11.856003,45.999998 24,46 36.143996,46 46.000001,36.143997 46,24 46,11.856003 36.143996,2 24,2 z m -7.706395,9.593023 c 2.642825,-0.115681 22.159883,11.199355 22.159883,12.950582 -10e-7,1.807718 -20.818455,13.822464 -22.383721,12.918604 -1.565266,-0.903857 -1.565265,-24.93335 0,-25.837209 0.04892,-0.02825 0.138585,-0.02825 0.223838,-0.03198 z"
       id="path-main" />
</defs>
<acyl-settings>
<linearGradient
     id="linearGradient4321">
    <stop
       style="stop-color:#757575;stop-opacity:1.0;"
       offset="0.0"
       id="stop1" />
  </linearGradient>
<linearGradient
     inkscape:collect="always"
     xlink:href="#linearGradient4321"
     id="acyl_gradient"
     x1="50.0%"
     y1="0.0%"
     x2="50.0%"
     y2="100.0%" />
<filter id="filter1111" x="-50%" y="-50%" width="200%" height="200%">
	<feImage
	id="feImage2"
	xlink:href="#1"
	result="result1" />
	<feComposite
	id="feComposite3633"
	in="result1"
	in2="SourceAlpha"
	operator="out" />
</filter>
<defs>
<use id="1" transform="translate(22.5,22.5) scale(1) translate(-22.5,-22.5)" style="stroke-opacity:1;stroke:url(#acyl_gradient);stroke-width:4" xlink:href="#path-main" />
</defs>
<use id="2" transform="translate(22.5,22.5) scale(1) translate(-22.5,-22.5)" style="fill:url(#acyl_gradient);filter:url(#filter1111)" xlink:href="#path-main" />
</acyl-settings>
</svg>
