<svg xmlns="http://www.w3.org/2000/svg" width="48" height="48">
<defs>
  <path
     d="M 11.602941,10.480968 11.205882,11.569204 2.7794122,35.15744 2,37.363322 l 2.3382352,0 39.3235298,0 2.338235,0 -0.794118,-2.205882 -8.42647,-23.588236 -0.382353,-1.088236 -1.161765,0 -22.470588,0 -1.161765,0 z m 2.32353,3.294118 20.132353,0 7.25,20.294118 -34.6323528,0 7.2499998,-20.294118 z m 1,0.705883 -6.4999998,18.602941 7.8970578,0 3.25,-12.558823 -4.647058,-6.044118 z m 17.779411,0 -4.647058,6.044118 3.25,12.558823 7.897057,0 -6.499999,-18.602941 z"
     id="path-main"
      />
</defs>
<acyl-settings>
<linearGradient
     id="linearGradient4321">
    <stop
       style="stop-color:#757575;stop-opacity:1.0;"
       offset="0.0"
       id="stop1" />
  </linearGradient>
<linearGradient
     inkscape:collect="always"
     xlink:href="#linearGradient4321"
     id="acyl_gradient"
     x1="50.0%"
     y1="0.0%"
     x2="50.0%"
     y2="100.0%" />
<filter id="filter1111" x="-50%" y="-50%" width="200%" height="200%">
	<feImage
	id="feImage2"
	xlink:href="#1"
	result="result1" />
	<feComposite
	id="feComposite3633"
	in="result1"
	in2="SourceAlpha"
	operator="out" />
</filter>
<defs>
<use id="1" transform="translate(22.5,22.5) scale(1) translate(-22.5,-22.5)" style="stroke-opacity:1;stroke:url(#acyl_gradient);stroke-width:4" xlink:href="#path-main" />
</defs>
<use id="2" transform="translate(22.5,22.5) scale(1) translate(-22.5,-22.5)" style="fill:url(#acyl_gradient);filter:url(#filter1111)" xlink:href="#path-main" />
</acyl-settings>
</svg>
