<svg xmlns="http://www.w3.org/2000/svg" width="48" height="48">
<defs>
<path
   d="M 24,2 C 11.868262,2 2,11.868984 2,24 2,36.131016 11.868262,46 24,46 36.132459,46 46,36.131016 46,24 46,11.868984 36.132459,2 24,2 z m 0,6.852459 c 8.353147,0 15.147541,6.795115 15.147541,15.147541 0,8.352426 -6.794393,15.147541 -15.147541,15.147541 C 15.646852,39.147541 8.852459,32.352426 8.852459,24 8.852459,15.647574 15.646852,8.852459 24,8.852459 z m -3.245902,5.770492 c -0.596524,0 -1.081967,0.485442 -1.081967,1.081967 l 0,16.590164 c 1e-6,0.596525 0.485443,1.081967 1.081967,1.081967 l 6.491804,0 c 0.596525,0 1.081967,-0.485442 1.081967,-1.081967 l 0,-16.590164 c 0,-0.596525 -0.485443,-1.081967 -1.081967,-1.081967 l -6.491804,0 z"
   id="path-main"
    />
</defs>
<acyl-settings>
<linearGradient
     id="linearGradient4321">
    <stop
       style="stop-color:#757575;stop-opacity:1.0;"
       offset="0.0"
       id="stop1" />
  </linearGradient>
<linearGradient
     inkscape:collect="always"
     xlink:href="#linearGradient4321"
     id="acyl_gradient"
     x1="50.0%"
     y1="0.0%"
     x2="50.0%"
     y2="100.0%" />
<filter id="filter1111" x="-50%" y="-50%" width="200%" height="200%">
	<feImage
	id="feImage2"
	xlink:href="#1"
	result="result1" />
	<feComposite
	id="feComposite3633"
	in="result1"
	in2="SourceAlpha"
	operator="out" />
</filter>
<defs>
<use id="1" transform="translate(22.5,22.5) scale(1) translate(-22.5,-22.5)" style="stroke-opacity:1;stroke:url(#acyl_gradient);stroke-width:4" xlink:href="#path-main" />
</defs>
<use id="2" transform="translate(22.5,22.5) scale(1) translate(-22.5,-22.5)" style="fill:url(#acyl_gradient);filter:url(#filter1111)" xlink:href="#path-main" />
</acyl-settings>
</svg>
