<svg xmlns="http://www.w3.org/2000/svg" width="48" height="48">
<defs>
  <path
     d="m 19.883026,2 c -1.171424,0 -2.093681,0.93861 -2.093681,2.110037 l 0,1.014126 -2.976951,0 c -1.171425,0 -2.126394,0.93861 -2.126394,2.110038 l 0,34.101319 20.282528,0 0,-34.101319 c 0,-1.171428 -0.95497,-2.110038 -2.126394,-2.110038 l -2.976952,0 0,-1.014126 C 27.865182,2.93861 26.942926,2 25.771502,2 z m -3.205948,6.673606 12.300372,0 c 0.896377,0 1.619331,0.722952 1.619331,1.619331 l 0,14.426766 -15.539034,0 0,-14.426766 c 0,-0.896379 0.722953,-1.619331 1.619331,-1.619331 z M 12.686,43.36654 l 0,0.50707 C 12.686,45.04503 13.640969,46 14.812394,46 l 16.02974,0 c 1.171424,0 2.126394,-0.95497 2.126394,-2.12639 l 0,-0.50707 z"
     id="path-main"
      />
</defs>
<acyl-settings>
<linearGradient
     id="linearGradient4321">
    <stop
       style="stop-color:#757575;stop-opacity:1.0;"
       offset="0.0"
       id="stop1" />
  </linearGradient>
<linearGradient
     inkscape:collect="always"
     xlink:href="#linearGradient4321"
     id="acyl_gradient"
     x1="50.0%"
     y1="0.0%"
     x2="50.0%"
     y2="100.0%" />
<filter id="filter1111" x="-50%" y="-50%" width="200%" height="200%">
	<feImage
	id="feImage2"
	xlink:href="#1"
	result="result1" />
	<feComposite
	id="feComposite3633"
	in="result1"
	in2="SourceAlpha"
	operator="out" />
</filter>
<defs>
<use id="1" transform="translate(22.5,22.5) scale(1) translate(-22.5,-22.5)" style="stroke-opacity:1;stroke:url(#acyl_gradient);stroke-width:4" xlink:href="#path-main" />
</defs>
<use id="2" transform="translate(22.5,22.5) scale(1) translate(-22.5,-22.5)" style="fill:url(#acyl_gradient);filter:url(#filter1111)" xlink:href="#path-main" />
</acyl-settings>
</svg>
