<svg xmlns="http://www.w3.org/2000/svg" width="48" height="48">
<defs>
<defs
     id="defs5">
  </defs>
  <path
     d="m 2,2 0,12.575521 44,0 L 46,2 2,2 z m 3.6666667,3.2942708 1.0598958,0 13.6067705,0 L 13,12.627604 5.6666667,5.2942708 z M 2,15.606771 2,46 l 29.333333,0 0,-30.393229 -29.333333,0 z m 3.1510417,2.119791 23.0312503,0 0,25.723959 -23.0312503,0 0,-25.723959 z m 3.1223958,3.122396 0,4.325521 13.6354165,0 0,-4.325521 -13.6354165,0 z m 0,7.21875 0,4.325521 11.5442705,0 0,-4.325521 -11.5442705,0 z m 0,8.364584 0,4.32552 15.7265625,0 0,-4.32552 -15.7265625,0 z"
     id="path-main"
      />
</defs>
<acyl-settings>
<linearGradient
     id="linearGradient4321">
    <stop
       style="stop-color:#757575;stop-opacity:1.0;"
       offset="0.0"
       id="stop1" />
  </linearGradient>
<linearGradient
     inkscape:collect="always"
     xlink:href="#linearGradient4321"
     id="acyl_gradient"
     x1="50.0%"
     y1="0.0%"
     x2="50.0%"
     y2="100.0%" />
<filter id="filter1111" x="-50%" y="-50%" width="200%" height="200%">
	<feImage
	id="feImage2"
	xlink:href="#1"
	result="result1" />
	<feComposite
	id="feComposite3633"
	in="result1"
	in2="SourceAlpha"
	operator="out" />
</filter>
<defs>
<use id="1" transform="translate(22.5,22.5) scale(1) translate(-22.5,-22.5)" style="stroke-opacity:1;stroke:url(#acyl_gradient);stroke-width:4" xlink:href="#path-main" />
</defs>
<use id="2" transform="translate(22.5,22.5) scale(1) translate(-22.5,-22.5)" style="fill:url(#acyl_gradient);filter:url(#filter1111)" xlink:href="#path-main" />
</acyl-settings>
</svg>
