<svg xmlns="http://www.w3.org/2000/svg" width="48" height="48">
<defs>
<defs
     id="defs4" />
  <g
     id="layer1">
    <path
       d="M 23.90625,4.5 C 16.848931,4.5361428 10.310611,8.5517517 6.90625,14.96875 L 24.3125,22.5 L 43.28125,22.6875 C 42.806452,15.010243 38.14808,8.3689215 30.625,5.65625 C 28.405772,4.856042 26.130728,4.4886078 23.90625,4.5 z M 5.625,17.6875 C 2.4446323,26.927352 6.6169403,36.98597 15.3125,41.34375 L 22.0625,24.78125 L 5.625,17.6875 z M 29.25,25.5625 L 41.09375,33.09375 C 42.361853,30.753604 43.07133,28.340787 43.28125,25.6875 L 29.25,25.5625 z M 27.3125,27.71875 L 33.25,40.96875 C 35.938461,39.530523 38.077364,37.633317 39.8125,35.125 L 27.3125,27.71875 z M 24.0625,27.8125 L 18.09375,42.5 C 22.219855,43.87475 26.434579,43.79485 30.53125,42.28125 L 24.0625,27.8125 z"
       id="path-main"
        />
  </g>
</defs>
<acyl-settings>
<linearGradient
     id="linearGradient4321">
    <stop
       style="stop-color:#757575;stop-opacity:1.0;"
       offset="0.0"
       id="stop1" />
  </linearGradient>
<linearGradient
     inkscape:collect="always"
     xlink:href="#linearGradient4321"
     id="acyl_gradient"
     x1="50.0%"
     y1="0.0%"
     x2="50.0%"
     y2="100.0%" />
<filter id="filter1111" x="-50%" y="-50%" width="200%" height="200%">
	<feImage
	id="feImage2"
	xlink:href="#1"
	result="result1" />
	<feComposite
	id="feComposite3633"
	in="result1"
	in2="SourceAlpha"
	operator="out" />
</filter>
<defs>
<use id="1" transform="translate(22.5,22.5) scale(1) translate(-22.5,-22.5)" style="stroke-opacity:1;stroke:url(#acyl_gradient);stroke-width:4" xlink:href="#path-main" />
</defs>
<use id="2" transform="translate(22.5,22.5) scale(1) translate(-22.5,-22.5)" style="fill:url(#acyl_gradient);filter:url(#filter1111)" xlink:href="#path-main" />
</acyl-settings>
</svg>
