<svg xmlns="http://www.w3.org/2000/svg" width="48" height="48">
<defs>
  <path
     d="m 2,2.000001 0,8.792516 A 35.19611,35.19611 0 0 1 37.207482,46 L 46,46 A 43.995137,43.995137 0 0 0 2,2.000001 z m 0,14.816326 0,8.568027 A 20.614865,20.614865 0 0 1 22.615646,46 l 8.530611,0 A 29.162492,29.162492 0 0 0 2,16.816327 z M 8.023809,33.91497 C 4.691534,33.91497 2,36.6065 2,39.93878 2,43.27105 4.691534,46 8.023809,46 c 3.332277,0 6.061225,-2.72895 6.061225,-6.06122 0,-3.33228 -2.728948,-6.02381 -6.061225,-6.02381 z"
     id="path-main"
      />
</defs>
<acyl-settings>
<linearGradient
     id="linearGradient4321">
    <stop
       style="stop-color:#757575;stop-opacity:1.0;"
       offset="0.0"
       id="stop1" />
  </linearGradient>
<linearGradient
     inkscape:collect="always"
     xlink:href="#linearGradient4321"
     id="acyl_gradient"
     x1="50.0%"
     y1="0.0%"
     x2="50.0%"
     y2="100.0%" />
<filter id="filter1111" x="-50%" y="-50%" width="200%" height="200%">
	<feImage
	id="feImage2"
	xlink:href="#1"
	result="result1" />
	<feComposite
	id="feComposite3633"
	in="result1"
	in2="SourceAlpha"
	operator="out" />
</filter>
<defs>
<use id="1" transform="translate(22.5,22.5) scale(1) translate(-22.5,-22.5)" style="stroke-opacity:1;stroke:url(#acyl_gradient);stroke-width:4" xlink:href="#path-main" />
</defs>
<use id="2" transform="translate(22.5,22.5) scale(1) translate(-22.5,-22.5)" style="fill:url(#acyl_gradient);filter:url(#filter1111)" xlink:href="#path-main" />
</acyl-settings>
</svg>
