<svg xmlns="http://www.w3.org/2000/svg" width="48" height="48">
<defs>
  <path
     d="m 24,1.999997 c -12.148841,0 -22,9.851157 -22,22 C 2,36.148839 11.851159,46 24,46 c 12.14884,0 22,-9.851161 22,-22.000003 0,-12.148843 -9.85116,-22 -22,-22 z m 11.097475,9.402863 4.663942,3.629175 -16.781186,21.565095 -0.119974,-0.09 -4.543968,-3.539192 -10.06271,-7.813224 3.629176,-4.66394 10.06271,7.813224 13.15201,-16.901158 z"
     id="path-main"
      />
</defs>
<acyl-settings>
<linearGradient
     id="linearGradient4321">
    <stop
       style="stop-color:#757575;stop-opacity:1.0;"
       offset="0.0"
       id="stop1" />
  </linearGradient>
<linearGradient
     inkscape:collect="always"
     xlink:href="#linearGradient4321"
     id="acyl_gradient"
     x1="50.0%"
     y1="0.0%"
     x2="50.0%"
     y2="100.0%" />
<filter id="filter1111" x="-50%" y="-50%" width="200%" height="200%">
	<feImage
	id="feImage2"
	xlink:href="#1"
	result="result1" />
	<feComposite
	id="feComposite3633"
	in="result1"
	in2="SourceAlpha"
	operator="out" />
</filter>
<defs>
<use id="1" transform="translate(22.5,22.5) scale(1) translate(-22.5,-22.5)" style="stroke-opacity:1;stroke:url(#acyl_gradient);stroke-width:4" xlink:href="#path-main" />
</defs>
<use id="2" transform="translate(22.5,22.5) scale(1) translate(-22.5,-22.5)" style="fill:url(#acyl_gradient);filter:url(#filter1111)" xlink:href="#path-main" />
</acyl-settings>
</svg>
