<svg xmlns="http://www.w3.org/2000/svg" width="48" height="48">
<defs>
  <path
     d="m 7.2727273,2 0,44 32.8866047,0 0,-44 -32.8866047,0 z m 8.6185567,3.402063 4.536084,0 0,4.536083 -4.536084,0 0,-4.536083 z m 5.443303,0 4.536083,0 0,4.536083 -4.536083,0 0,-4.536083 z m 5.443302,0 4.536084,0 0,4.536083 -4.536084,0 0,-4.536083 z m -16.329901,5.443302 4.536083,0 0,4.536083 -4.536083,0 0,-4.536083 z m 21.773198,0 4.536083,0 0,4.536083 -4.536083,0 0,-4.536083 z m -16.329902,5.443297 4.536084,0 0,4.536083 -4.536084,0 0,-4.536083 z m 5.443303,0 4.536083,0 0,4.536083 -4.536083,0 0,-4.536083 z m 5.443302,0 4.536084,0 0,4.536083 -4.536084,0 0,-4.536083 z m -5.443302,5.443302 4.536083,0 0,4.536083 -4.536083,0 0,-4.536083 z m 0,5.443302 4.536083,0 0,4.536084 -4.536083,0 0,-4.536084 z m 0,5.443297 4.536083,0 0,4.536078 -4.536083,0 0,-4.536078 z m -5.443303,5.443291 4.536084,0 0,4.536083 -4.536084,0 0,-4.536083 z m 5.443303,0 4.536083,0 0,4.536083 -4.536083,0 0,-4.536083 z"
     id="path-main"/>
</defs>
<acyl-settings>
<linearGradient
     id="linearGradient4321">
    <stop
       style="stop-color:#757575;stop-opacity:1.0;"
       offset="0.0"
       id="stop1" />
  </linearGradient>
<linearGradient
     inkscape:collect="always"
     xlink:href="#linearGradient4321"
     id="acyl_gradient"
     x1="50.0%"
     y1="0.0%"
     x2="50.0%"
     y2="100.0%" />
<filter id="filter1111" x="-50%" y="-50%" width="200%" height="200%">
	<feImage
	id="feImage2"
	xlink:href="#1"
	result="result1" />
	<feComposite
	id="feComposite3633"
	in="result1"
	in2="SourceAlpha"
	operator="out" />
</filter>
<defs>
<use id="1" transform="translate(22.5,22.5) scale(1) translate(-22.5,-22.5)" style="stroke-opacity:1;stroke:url(#acyl_gradient);stroke-width:4" xlink:href="#path-main" />
</defs>
<use id="2" transform="translate(22.5,22.5) scale(1) translate(-22.5,-22.5)" style="fill:url(#acyl_gradient);filter:url(#filter1111)" xlink:href="#path-main" />
</acyl-settings>
</svg>
