<svg xmlns="http://www.w3.org/2000/svg" width="48" height="48">
<defs>
<defs
     id="defs2385" />
  <g
     id="layer1">
    <path
       d="M 13.107548,4.6 C 12.706816,4.6 12.4,4.9076122 12.4,5.2938199 L 12.4,41.906175 C 12.4,42.292387 12.706816,42.6 13.107548,42.6 L 23.862266,42.6 L 36.4,30.778368 L 36.4,16.768546 L 23.494823,4.6 L 13.107548,4.6 z M 25.532071,4.6 L 36.4,14.847192 L 36.4,5.2938199 C 36.4,4.9076122 36.06488,4.6 35.664153,4.6 L 25.532071,4.6 z M 36.4,32.69972 L 25.9,42.6 L 35.664153,42.6 C 36.06489,42.6 36.4,42.292387 36.4,41.906175 L 36.4,32.69972 z"
       id="path-main"
        />
  </g>
</defs>
<acyl-settings>
<linearGradient
     id="linearGradient4321">
    <stop
       style="stop-color:#757575;stop-opacity:1.0;"
       offset="0.0"
       id="stop1" />
  </linearGradient>
<linearGradient
     inkscape:collect="always"
     xlink:href="#linearGradient4321"
     id="acyl_gradient"
     x1="50.0%"
     y1="0.0%"
     x2="50.0%"
     y2="100.0%" />
<filter id="filter1111" x="-50%" y="-50%" width="200%" height="200%">
	<feImage
	id="feImage2"
	xlink:href="#1"
	result="result1" />
	<feComposite
	id="feComposite3633"
	in="result1"
	in2="SourceAlpha"
	operator="out" />
</filter>
<defs>
<use id="1" transform="translate(22.5,22.5) scale(1) translate(-22.5,-22.5)" style="stroke-opacity:1;stroke:url(#acyl_gradient);stroke-width:4" xlink:href="#path-main" />
</defs>
<use id="2" transform="translate(22.5,22.5) scale(1) translate(-22.5,-22.5)" style="fill:url(#acyl_gradient);filter:url(#filter1111)" xlink:href="#path-main" />
</acyl-settings>
</svg>
