<svg xmlns="http://www.w3.org/2000/svg" width="48" height="48">
<defs>
  <path
     d="m 15.493825,12.269371 c -0.695312,0 -1.290572,0.291496 -1.70853,0.783076 l -5.1255893,6.051042 -4.5560789,0 c -1.2574778,0 -2.2780394,1.020562 -2.2780394,2.27804 -0.014283,2.269089 0.00506,4.589222 0,6.834118 0,1.257478 1.0205619,2.27804 2.2780394,2.27804 l 4.5560789,0 4.9120233,5.623909 c 0.390361,0.694618 1.069094,1.210209 1.922096,1.210209 1.257477,0 2.27804,-1.020562 2.278039,-2.27804 l 0,-20.502354 c 0,-1.257478 -1.020562,-2.27804 -2.278039,-2.27804 z"
     id="path-main"
     sodipodi:nodetypes="cccccscccsccc" />
</defs>
<acyl-settings>
<linearGradient
     id="linearGradient4321">
    <stop
       style="stop-color:#757575;stop-opacity:1.0;"
       offset="0.0"
       id="stop1" />
  </linearGradient>
<linearGradient
     inkscape:collect="always"
     xlink:href="#linearGradient4321"
     id="acyl_gradient"
     x1="50.0%"
     y1="0.0%"
     x2="50.0%"
     y2="100.0%" />
<filter id="filter1111" x="-50%" y="-50%" width="200%" height="200%">
	<feImage
	id="feImage2"
	xlink:href="#1"
	result="result1" />
	<feComposite
	id="feComposite3633"
	in="result1"
	in2="SourceAlpha"
	operator="out" />
</filter>
<defs>
<use id="1" transform="translate(22.5,22.5) scale(1) translate(-22.5,-22.5)" style="stroke-opacity:1;stroke:url(#acyl_gradient);stroke-width:4" xlink:href="#path-main" />
</defs>
<use id="2" transform="translate(22.5,22.5) scale(1) translate(-22.5,-22.5)" style="fill:url(#acyl_gradient);filter:url(#filter1111)" xlink:href="#path-main" />
</acyl-settings>
</svg>
