<svg xmlns="http://www.w3.org/2000/svg" width="48" height="48">
<defs>
<defs
     id="defs3467">
  </defs>
  <path
     id="path-main"
     d="m 24.011321,2 c -7.7,0 -13.2,4.591295 -13.2,12.1 l 0,6.6 -2.2000002,0 c -2.2,0 -3.3,1.1 -3.3,3.3 l 0,18.7 c 0,1.078358 1.1,3.3 3.3,3.3 l 32.3224172,0 c 1.777583,-0.0104 2.877583,-2.221643 2.877583,-3.3 l 0,-18.7 c 0,-2.2 -1.1,-3.3104 -3.3,-3.3104 l -2.2,0.0104 0,-6.6 c 0,-7.7 -5.5,-12.1 -13.2,-12.1 l -1.1,0 z m 0,5.5 1.1,0 c 7.7,0 7.7,6.6 7.7,8.8 l 0,4.4 -16.5,0 0,-4.4 c 0,-2.2 0,-8.8 7.7,-8.8 z" />
</defs>
<acyl-settings>
<linearGradient
     id="linearGradient4321">
    <stop
       style="stop-color:#757575;stop-opacity:1.0;"
       offset="0.0"
       id="stop1" />
  </linearGradient>
<linearGradient
     inkscape:collect="always"
     xlink:href="#linearGradient4321"
     id="acyl_gradient"
     x1="50.0%"
     y1="0.0%"
     x2="50.0%"
     y2="100.0%" />
<filter id="filter1111" x="-50%" y="-50%" width="200%" height="200%">
	<feImage
	id="feImage2"
	xlink:href="#1"
	result="result1" />
	<feComposite
	id="feComposite3633"
	in="result1"
	in2="SourceAlpha"
	operator="out" />
</filter>
<defs>
<use id="1" transform="translate(22.5,22.5) scale(1) translate(-22.5,-22.5)" style="stroke-opacity:1;stroke:url(#acyl_gradient);stroke-width:4" xlink:href="#path-main" />
</defs>
<use id="2" transform="translate(22.5,22.5) scale(1) translate(-22.5,-22.5)" style="fill:url(#acyl_gradient);filter:url(#filter1111)" xlink:href="#path-main" />
</acyl-settings>
</svg>
