<svg xmlns="http://www.w3.org/2000/svg" width="48" height="48">
<defs>
<defs
   id="defs17">
</defs>
	<path
   
   d="m 30.947897,2 -25.0364583,0.028646 0,43.9713542 36.1510423,0 0,-32.65625 L 30.947897,2 z m -1.317708,3.6666667 9.052083,9.4531253 0,27.213541 -29.390625,0 L 9.3202929,5.6953125 29.630189,5.6666667 z M 18.658835,13.916667 13.903627,18.671875 19.231751,24 l -5.328124,5.328125 4.755208,4.755208 5.328125,-5.328125 5.328125,5.328125 4.755208,-4.755208 L 28.742168,24 34.070293,18.671875 29.315085,13.916667 23.98696,19.244792 18.658835,13.916667 z"
   id="path-main" />
</defs>
<acyl-settings>
<linearGradient
     id="linearGradient4321">
    <stop
       style="stop-color:#757575;stop-opacity:1.0;"
       offset="0.0"
       id="stop1" />
  </linearGradient>
<linearGradient
     inkscape:collect="always"
     xlink:href="#linearGradient4321"
     id="acyl_gradient"
     x1="50.0%"
     y1="0.0%"
     x2="50.0%"
     y2="100.0%" />
<filter id="filter1111" x="-50%" y="-50%" width="200%" height="200%">
	<feImage
	id="feImage2"
	xlink:href="#1"
	result="result1" />
	<feComposite
	id="feComposite3633"
	in="result1"
	in2="SourceAlpha"
	operator="out" />
</filter>
<defs>
<use id="1" transform="translate(22.5,22.5) scale(1) translate(-22.5,-22.5)" style="stroke-opacity:1;stroke:url(#acyl_gradient);stroke-width:4" xlink:href="#path-main" />
</defs>
<use id="2" transform="translate(22.5,22.5) scale(1) translate(-22.5,-22.5)" style="fill:url(#acyl_gradient);filter:url(#filter1111)" xlink:href="#path-main" />
</acyl-settings>
</svg>
