<svg xmlns="http://www.w3.org/2000/svg" width="48" height="48">
<defs>
<defs
     id="defs1308">
  </defs>
  <path
     id="path-main"
     d="M 46,28.622329 33.688202,29.269807 40.195683,39.769131 29.489223,33.639806 29.302403,46 23.600504,35.039889 16.778697,45.336677 17.891674,33.025538 6.6007539,37.989763 14.175243,28.236296 2,26.291853 13.631155,22.192714 4.4371408,13.956948 16.432153,16.813585 13.138402,4.9012955 21.688939,13.806747 25.341194,1.9999999 27.732521,14.126848 37.171218,6.1742024 32.644105,17.672258 44.872523,16.098623 34.864297,23.317335 46,28.622329 z" />
</defs>
<acyl-settings>
<linearGradient
     id="linearGradient4321">
    <stop
       style="stop-color:#757575;stop-opacity:1.0;"
       offset="0.0"
       id="stop1" />
  </linearGradient>
<linearGradient
     inkscape:collect="always"
     xlink:href="#linearGradient4321"
     id="acyl_gradient"
     x1="50.0%"
     y1="0.0%"
     x2="50.0%"
     y2="100.0%" />
<filter id="filter1111" x="-50%" y="-50%" width="200%" height="200%">
	<feImage
	id="feImage2"
	xlink:href="#1"
	result="result1" />
	<feComposite
	id="feComposite3633"
	in="result1"
	in2="SourceAlpha"
	operator="out" />
</filter>
<defs>
<use id="1" transform="translate(22.5,22.5) scale(1) translate(-22.5,-22.5)" style="stroke-opacity:1;stroke:url(#acyl_gradient);stroke-width:4" xlink:href="#path-main" />
</defs>
<use id="2" transform="translate(22.5,22.5) scale(1) translate(-22.5,-22.5)" style="fill:url(#acyl_gradient);filter:url(#filter1111)" xlink:href="#path-main" />
</acyl-settings>
</svg>
