<svg xmlns="http://www.w3.org/2000/svg" width="48" height="48">
<defs>
<defs
     id="defs1309">
  </defs>
  <path
     id="path-main"
     d="M 6.40665,13 C 6.16761,13.0456 5.99611,13.25668 6.0004,13.5 l 0,21 c -0.002,0.17942 0.0931,0.34594 0.24807,0.43634 0.15499,0.0904 0.34653,0.0908 0.50193,10e-4 l 17.25,-10.34359 0,9.90625 c -0.002,0.17942 0.0931,0.34594 0.24807,0.43634 0.15499,0.0904 0.34653,0.0908 0.50193,10e-4 l 17.5,-10.5 c 0.15913,-0.0881 0.25788,-0.25562 0.25788,-0.4375 0,-0.18188 -0.0987,-0.34942 -0.25788,-0.4375 l -17.5,-10.5 c -0.1554,-0.0897 -0.34694,-0.0892 -0.50193,10e-4 -0.15499,0.0904 -0.24965,0.25692 -0.24807,0.43634 l 0,9.90625 -17.25,-10.34375 c -0.10334,-0.0615 -0.22538,-0.0837 -0.34375,-0.0625 z" />
</defs>
<acyl-settings>
<linearGradient
     id="linearGradient4321">
    <stop
       style="stop-color:#757575;stop-opacity:1.0;"
       offset="0.0"
       id="stop1" />
  </linearGradient>
<linearGradient
     inkscape:collect="always"
     xlink:href="#linearGradient4321"
     id="acyl_gradient"
     x1="50.0%"
     y1="0.0%"
     x2="50.0%"
     y2="100.0%" />
<filter id="filter1111" x="-50%" y="-50%" width="200%" height="200%">
	<feImage
	id="feImage2"
	xlink:href="#1"
	result="result1" />
	<feComposite
	id="feComposite3633"
	in="result1"
	in2="SourceAlpha"
	operator="out" />
</filter>
<defs>
<use id="1" transform="translate(22.5,22.5) scale(1) translate(-22.5,-22.5)" style="stroke-opacity:1;stroke:url(#acyl_gradient);stroke-width:4" xlink:href="#path-main" />
</defs>
<use id="2" transform="translate(22.5,22.5) scale(1) translate(-22.5,-22.5)" style="fill:url(#acyl_gradient);filter:url(#filter1111)" xlink:href="#path-main" />
</acyl-settings>
</svg>
