<svg xmlns="http://www.w3.org/2000/svg" width="48" height="48">
<defs>
<defs
     id="defs2564" />
  <g
     id="layer1">
    <path
       d="M 37.625,18.5 L 35.59375,18.53125 L 11.96875,18.875 L 10,18.90625 L 10,20.875 L 10,26.78125 L 5.03125,26.78125 L 3.03125,26.78125 L 3.03125,30.78125 L 5.03125,30.78125 L 12,30.78125 L 14,30.78125 L 14,28.78125 L 14,22.84375 L 33.625,22.5625 L 33.625,28.78125 L 33.625,30.78125 L 35.625,30.78125 L 42.40625,30.78125 L 44.40625,30.78125 L 44.40625,26.78125 L 42.40625,26.78125 L 37.625,26.78125 L 37.625,20.53125 L 37.625,18.5 z"
       id="path-main"
        />
  </g>
</defs>
<acyl-settings>
<linearGradient
     id="linearGradient4321">
    <stop
       style="stop-color:#757575;stop-opacity:1.0;"
       offset="0.0"
       id="stop1" />
  </linearGradient>
<linearGradient
     inkscape:collect="always"
     xlink:href="#linearGradient4321"
     id="acyl_gradient"
     x1="50.0%"
     y1="0.0%"
     x2="50.0%"
     y2="100.0%" />
<filter id="filter1111" x="-50%" y="-50%" width="200%" height="200%">
	<feImage
	id="feImage2"
	xlink:href="#1"
	result="result1" />
	<feComposite
	id="feComposite3633"
	in="result1"
	in2="SourceAlpha"
	operator="out" />
</filter>
<defs>
<use id="1" transform="translate(22.5,22.5) scale(1) translate(-22.5,-22.5)" style="stroke-opacity:1;stroke:url(#acyl_gradient);stroke-width:4" xlink:href="#path-main" />
</defs>
<use id="2" transform="translate(22.5,22.5) scale(1) translate(-22.5,-22.5)" style="fill:url(#acyl_gradient);filter:url(#filter1111)" xlink:href="#path-main" />
</acyl-settings>
</svg>
